<svg width="104" height="17" viewBox="0 0 104 17" fill="none" xmlns="http://www.w3.org/2000/svg">
<path d="M7.38174 2.25534C7.59507 1.69268 8.40241 1.69268 8.61641 2.25534L9.99641 6.07801C10.0931 6.33134 10.3391 6.50001 10.6137 6.50001H14.0051C14.6317 6.50001 14.9051 7.28001 14.4124 7.66201L11.9991 9.83334C11.891 9.91645 11.812 10.0317 11.7734 10.1624C11.7348 10.2932 11.7387 10.4329 11.7844 10.5613L12.6657 14.2967C12.8804 14.8967 12.1857 15.412 11.6604 15.0427L8.38241 12.9627C8.27015 12.8838 8.13628 12.8414 7.99907 12.8414C7.86187 12.8414 7.728 12.8838 7.61574 12.9627L4.33774 15.0427C3.81307 15.412 3.11774 14.896 3.33241 14.2967L4.21374 10.5613C4.25946 10.4329 4.26331 10.2932 4.22475 10.1624C4.18618 10.0317 4.10718 9.91645 3.99907 9.83334L1.58574 7.66201C1.09241 7.28001 1.36707 6.50001 1.99241 6.50001H5.38374C5.51727 6.50045 5.64778 6.46035 5.75802 6.38499C5.86825 6.30964 5.95301 6.20259 6.00107 6.07801L7.38107 2.25534H7.38174Z" fill="#F7AB3A" stroke="#F7AB3A" stroke-width="0.5" stroke-linecap="round" stroke-linejoin="round"/>
<path d="M29.3817 2.25534C29.5951 1.69268 30.4024 1.69268 30.6164 2.25534L31.9964 6.07801C32.0931 6.33134 32.3391 6.50001 32.6137 6.50001H36.0051C36.6317 6.50001 36.9051 7.28001 36.4124 7.66201L33.9991 9.83334C33.891 9.91645 33.812 10.0317 33.7734 10.1624C33.7348 10.2932 33.7387 10.4329 33.7844 10.5613L34.6657 14.2967C34.8804 14.8967 34.1857 15.412 33.6604 15.0427L30.3824 12.9627C30.2701 12.8838 30.1363 12.8414 29.9991 12.8414C29.8619 12.8414 29.728 12.8838 29.6157 12.9627L26.3377 15.0427C25.8131 15.412 25.1177 14.896 25.3324 14.2967L26.2137 10.5613C26.2595 10.4329 26.2633 10.2932 26.2247 10.1624C26.1862 10.0317 26.1072 9.91645 25.9991 9.83334L23.5857 7.66201C23.0924 7.28001 23.3671 6.50001 23.9924 6.50001H27.3837C27.5173 6.50045 27.6478 6.46035 27.758 6.38499C27.8683 6.30964 27.953 6.20259 28.0011 6.07801L29.3811 2.25534H29.3817Z" fill="#F7AB3A"/>
<path d="M51.3817 2.25534C51.5951 1.69268 52.4024 1.69268 52.6164 2.25534L53.9964 6.07801C54.0931 6.33134 54.3391 6.50001 54.6137 6.50001H58.0051C58.6317 6.50001 58.9051 7.28001 58.4124 7.66201L55.9991 9.83334C55.891 9.91645 55.812 10.0317 55.7734 10.1624C55.7348 10.2932 55.7387 10.4329 55.7844 10.5613L56.6657 14.2967C56.8804 14.8967 56.1857 15.412 55.6604 15.0427L52.3824 12.9627C52.2701 12.8838 52.1363 12.8414 51.9991 12.8414C51.8619 12.8414 51.728 12.8838 51.6157 12.9627L48.3377 15.0427C47.8131 15.412 47.1177 14.896 47.3324 14.2967L48.2137 10.5613C48.2595 10.4329 48.2633 10.2932 48.2247 10.1624C48.1862 10.0317 48.1072 9.91645 47.9991 9.83334L45.5857 7.66201C45.0924 7.28001 45.3671 6.50001 45.9924 6.50001H49.3837C49.5173 6.50045 49.6478 6.46035 49.758 6.38499C49.8683 6.30964 49.953 6.20259 50.0011 6.07801L51.3811 2.25534H51.3817Z" fill="#F7AB3A"/>
<path d="M73.3817 2.25534C73.5951 1.69268 74.4024 1.69268 74.6164 2.25534L75.9964 6.07801C76.0931 6.33134 76.3391 6.50001 76.6137 6.50001H80.0051C80.6317 6.50001 80.9051 7.28001 80.4124 7.66201L77.9991 9.83334C77.891 9.91645 77.812 10.0317 77.7734 10.1624C77.7348 10.2932 77.7387 10.4329 77.7844 10.5613L78.6657 14.2967C78.8804 14.8967 78.1857 15.412 77.6604 15.0427L74.3824 12.9627C74.2701 12.8838 74.1363 12.8414 73.9991 12.8414C73.8619 12.8414 73.728 12.8838 73.6157 12.9627L70.3377 15.0427C69.8131 15.412 69.1177 14.896 69.3324 14.2967L70.2137 10.5613C70.2595 10.4329 70.2633 10.2932 70.2247 10.1624C70.1862 10.0317 70.1072 9.91645 69.9991 9.83334L67.5857 7.66201C67.0924 7.28001 67.3671 6.50001 67.9924 6.50001H71.3837C71.5173 6.50045 71.6478 6.46035 71.758 6.38499C71.8683 6.30964 71.953 6.20259 72.0011 6.07801L73.3811 2.25534H73.3817Z" stroke="#C4CDD5" stroke-width="0.5" stroke-linecap="round" stroke-linejoin="round"/>
<path d="M95.3817 2.25534C95.5951 1.69268 96.4024 1.69268 96.6164 2.25534L97.9964 6.07801C98.0931 6.33134 98.3391 6.50001 98.6137 6.50001H102.005C102.632 6.50001 102.905 7.28001 102.412 7.66201L99.9991 9.83334C99.891 9.91645 99.812 10.0317 99.7734 10.1624C99.7348 10.2932 99.7387 10.4329 99.7844 10.5613L100.666 14.2967C100.88 14.8967 100.186 15.412 99.6604 15.0427L96.3824 12.9627C96.2701 12.8838 96.1363 12.8414 95.9991 12.8414C95.8619 12.8414 95.728 12.8838 95.6157 12.9627L92.3377 15.0427C91.8131 15.412 91.1177 14.896 91.3324 14.2967L92.2137 10.5613C92.2595 10.4329 92.2633 10.2932 92.2247 10.1624C92.1862 10.0317 92.1072 9.91645 91.9991 9.83334L89.5857 7.66201C89.0924 7.28001 89.3671 6.50001 89.9924 6.50001H93.3837C93.5173 6.50045 93.6478 6.46035 93.758 6.38499C93.8683 6.30964 93.953 6.20259 94.0011 6.07801L95.3811 2.25534H95.3817Z" stroke="#C4CDD5" stroke-width="0.5" stroke-linecap="round" stroke-linejoin="round"/>
</svg>
